<svg xmlns="http://www.w3.org/2000/svg" width="1400" height="1400" viewBox="0 0 1400 1400">
<defs><symbol id="state-home" viewBox="0 0 24 24"><path class="ink" d="M3.2 10.7 11 3.9c.6-.5 1.4-.5 2 0l7.8 6.8c.6.5.3 1.5-.5 1.6l-1.3.2v6c0 1.1-.9 2-2 2h-3.2v-5.3c0-1-.8-1.8-1.8-1.8s-1.8.8-1.8 1.8v5.3H7c-1.1 0-2-.9-2-2v-6l-1.3-.2c-.8-.1-1.1-1.1-.5-1.6Z"/><circle class="mint" cx="17.8" cy="7.4" r="1.7"/></symbol>
<symbol id="state-dark-home" viewBox="0 0 24 24"><path class="ink-dark" d="M3.2 10.7 11 3.9c.6-.5 1.4-.5 2 0l7.8 6.8c.6.5.3 1.5-.5 1.6l-1.3.2v6c0 1.1-.9 2-2 2h-3.2v-5.3c0-1-.8-1.8-1.8-1.8s-1.8.8-1.8 1.8v5.3H7c-1.1 0-2-.9-2-2v-6l-1.3-.2c-.8-.1-1.1-1.1-.5-1.6Z"/><circle class="mint" cx="17.8" cy="7.4" r="1.7"/></symbol>
<symbol id="state-play" viewBox="0 0 24 24"><path class="ink" d="M6.2 5.4c0-1.7 1.8-2.7 3.3-1.8l10 6.6c1.3.9 1.3 2.8 0 3.6l-10 6.6c-1.4.9-3.3-.1-3.3-1.8V5.4Z"/><path class="mint" d="M9.5 8.3v7.4l5.7-3.7-5.7-3.7Z"/></symbol>
<symbol id="state-dark-play" viewBox="0 0 24 24"><path class="ink-dark" d="M6.2 5.4c0-1.7 1.8-2.7 3.3-1.8l10 6.6c1.3.9 1.3 2.8 0 3.6l-10 6.6c-1.4.9-3.3-.1-3.3-1.8V5.4Z"/><path class="mint" d="M9.5 8.3v7.4l5.7-3.7-5.7-3.7Z"/></symbol>
<symbol id="state-like" viewBox="0 0 24 24"><path class="ink" d="M12 21.2C9.3 18.8 3.1 14.7 3.1 9.1c0-3.4 2.1-5.6 5.1-5.6 1.9 0 3.2 1 3.8 2.2.6-1.2 1.9-2.2 3.8-2.2 3 0 5.1 2.2 5.1 5.6 0 5.6-6.2 9.7-8.9 12.1Z"/><path class="coral" d="M15.4 5.9c2.1-.1 3.4 1.2 3.2 3.4-.2 1.6-1.1 2.8-2.6 4.2.8-3.4-.2-5.4-2.5-6.2.5-.8 1.1-1.3 1.9-1.4Z"/></symbol>
<symbol id="state-dark-like" viewBox="0 0 24 24"><path class="ink-dark" d="M12 21.2C9.3 18.8 3.1 14.7 3.1 9.1c0-3.4 2.1-5.6 5.1-5.6 1.9 0 3.2 1 3.8 2.2.6-1.2 1.9-2.2 3.8-2.2 3 0 5.1 2.2 5.1 5.6 0 5.6-6.2 9.7-8.9 12.1Z"/><path class="coral" d="M15.4 5.9c2.1-.1 3.4 1.2 3.2 3.4-.2 1.6-1.1 2.8-2.6 4.2.8-3.4-.2-5.4-2.5-6.2.5-.8 1.1-1.3 1.9-1.4Z"/></symbol>
<symbol id="state-equalizer" viewBox="0 0 24 24"><rect class="ink" x="3" y="3" width="3.8" height="18" rx="1.9"/><rect class="soft" x="10.1" y="3" width="3.8" height="18" rx="1.9"/><rect class="violet" x="17.2" y="3" width="3.8" height="18" rx="1.9"/><circle class="mint" cx="4.9" cy="8" r="3"/><circle class="coral" cx="12" cy="15.8" r="3"/><circle class="paper" cx="19.1" cy="10.8" r="2.2"/></symbol>
<symbol id="state-dark-equalizer" viewBox="0 0 24 24"><rect class="ink-dark" x="3" y="3" width="3.8" height="18" rx="1.9"/><rect class="soft-dark" x="10.1" y="3" width="3.8" height="18" rx="1.9"/><rect class="violet" x="17.2" y="3" width="3.8" height="18" rx="1.9"/><circle class="mint" cx="4.9" cy="8" r="3"/><circle class="coral" cx="12" cy="15.8" r="3"/><circle class="paper-dark" cx="19.1" cy="10.8" r="2.2"/></symbol>
<symbol id="state-catAcg" viewBox="0 0 24 24"><path class="ink" d="M4 4.5 9.3 2l2.7 3 2.7-3L20 4.5v11c0 3.6-3.6 6.5-8 6.5s-8-2.9-8-6.5v-11Z"/><circle class="mint" cx="8.5" cy="11" r="1.5"/><circle class="coral" cx="15.5" cy="11" r="1.5"/><path class="paper" d="M9.4 16c.8.8 1.7 1.2 2.6 1.2s1.8-.4 2.6-1.2l-1.2-1.4c-.5.4-.9.6-1.4.6s-.9-.2-1.4-.6L9.4 16Z"/></symbol>
<symbol id="state-dark-catAcg" viewBox="0 0 24 24"><path class="ink-dark" d="M4 4.5 9.3 2l2.7 3 2.7-3L20 4.5v11c0 3.6-3.6 6.5-8 6.5s-8-2.9-8-6.5v-11Z"/><circle class="mint" cx="8.5" cy="11" r="1.5"/><circle class="coral" cx="15.5" cy="11" r="1.5"/><path class="paper-dark" d="M9.4 16c.8.8 1.7 1.2 2.6 1.2s1.8-.4 2.6-1.2l-1.2-1.4c-.5.4-.9.6-1.4.6s-.9-.2-1.4-.6L9.4 16Z"/></symbol>
<symbol id="state-floatingBall" viewBox="0 0 24 24"><circle class="ink" cx="12" cy="12" r="10"/><circle class="violet" cx="12" cy="12" r="5.7"/><path class="mint" d="m10 8.3 5.7 3.7-5.7 3.7V8.3Z"/><circle class="coral" cx="18.2" cy="5.8" r="1.2"/></symbol>
<symbol id="state-dark-floatingBall" viewBox="0 0 24 24"><circle class="ink-dark" cx="12" cy="12" r="10"/><circle class="violet" cx="12" cy="12" r="5.7"/><path class="mint" d="m10 8.3 5.7 3.7-5.7 3.7V8.3Z"/><circle class="coral" cx="18.2" cy="5.8" r="1.2"/></symbol><filter id="stateShadow" x="-30%" y="-30%" width="160%" height="170%"><feDropShadow dx="0" dy="15" stdDeviation="20" flood-color="#241A42" flood-opacity=".16"/></filter></defs>
<style>

  .ink { fill:#1B1730; }
  .soft { fill:#3A315D; }
  .mint { fill:#66E8B4; }
  .coral { fill:#FF728E; }
  .violet { fill:#8D7CFF; }
  .paper { fill:#F7F5FF; }
  .line { fill:none; stroke:#1B1730; stroke-width:2.15; stroke-linecap:round; stroke-linejoin:round; }
  .line-soft { fill:none; stroke:#3A315D; stroke-width:1.55; stroke-linecap:round; stroke-linejoin:round; }

  .title { font:760 68px -apple-system,BlinkMacSystemFont,"Helvetica Neue",sans-serif; fill:#18142A; }
  .meta { font:620 22px -apple-system,BlinkMacSystemFont,"Helvetica Neue",sans-serif; fill:#71698A; letter-spacing:3px; }
  .label,.label-dark { font:650 17px -apple-system,BlinkMacSystemFont,"Helvetica Neue",sans-serif; fill:#71698A; }
  .label-dark { fill:#D8D0F2; }
  .light-tile { fill:#fff; filter:url(#stateShadow); }
  .dark-tile { fill:#19142A; filter:url(#stateShadow); }
  .active-tile { fill:#ECE8FF; stroke:#fff; stroke-width:3; filter:url(#stateShadow); }
  .ink-dark { fill:#F7F4FF; } .soft-dark { fill:#D8D0F2; } .paper-dark { fill:#19142A; } .line-dark { fill:none;stroke:#F7F4FF;stroke-width:2.15;stroke-linecap:round;stroke-linejoin:round; } .line-soft-dark { fill:none;stroke:#D8D0F2;stroke-width:1.55;stroke-linecap:round;stroke-linejoin:round; }
  .pulse { fill:#FF728E; transform-box:fill-box; transform-origin:center; animation:signal 1.7s ease-in-out infinite; }
  @keyframes signal { 0%,100%{transform:scale(.8);opacity:.7} 50%{transform:scale(1.35);opacity:1} }
  @media(prefers-reduced-motion:reduce){*{animation:none!important}}
</style>
<rect width="100%" height="100%" fill="#F6F3FF"/>
<rect x="0" y="520" width="1400" height="280" fill="#211A38"/>
<text class="meta" x="80" y="72">PULSE BLOOM / STATE &amp; CONTRAST</text>
<text class="title" x="80" y="156">ONE SHAPE, THREE STATES</text>
<text class="meta" x="80" y="250">DEFAULT</text><text class="meta" x="80" y="555" fill="#D8D0F2">DARK</text><text class="meta" x="80" y="855">SELECTED + MOTION</text>
<g transform="translate(130 300)"><rect class="light-tile" width="150" height="150" rx="42"/><use href="#state-home" x="43" y="38" width="64" height="64"/><text class="label" x="75" y="185" text-anchor="middle">home</text></g><g transform="translate(130 600)"><rect class="dark-tile" width="150" height="150" rx="42"/><use href="#state-dark-home" x="43" y="38" width="64" height="64"/><text class="label-dark" x="75" y="185" text-anchor="middle">dark</text></g><g class="active-icon" transform="translate(130 900)"><rect class="active-tile" width="150" height="150" rx="52"/><use href="#state-home" x="43" y="38" width="64" height="64"/><circle class="pulse" cx="121" cy="29" r="8"/><text class="label" x="75" y="185" text-anchor="middle">selected</text></g><g transform="translate(335 300)"><rect class="light-tile" width="150" height="150" rx="42"/><use href="#state-play" x="43" y="38" width="64" height="64"/><text class="label" x="75" y="185" text-anchor="middle">play</text></g><g transform="translate(335 600)"><rect class="dark-tile" width="150" height="150" rx="42"/><use href="#state-dark-play" x="43" y="38" width="64" height="64"/><text class="label-dark" x="75" y="185" text-anchor="middle">dark</text></g><g class="active-icon" transform="translate(335 900)"><rect class="active-tile" width="150" height="150" rx="52"/><use href="#state-play" x="43" y="38" width="64" height="64"/><circle class="pulse" cx="121" cy="29" r="8"/><text class="label" x="75" y="185" text-anchor="middle">selected</text></g><g transform="translate(540 300)"><rect class="light-tile" width="150" height="150" rx="42"/><use href="#state-like" x="43" y="38" width="64" height="64"/><text class="label" x="75" y="185" text-anchor="middle">like</text></g><g transform="translate(540 600)"><rect class="dark-tile" width="150" height="150" rx="42"/><use href="#state-dark-like" x="43" y="38" width="64" height="64"/><text class="label-dark" x="75" y="185" text-anchor="middle">dark</text></g><g class="active-icon" transform="translate(540 900)"><rect class="active-tile" width="150" height="150" rx="52"/><use href="#state-like" x="43" y="38" width="64" height="64"/><circle class="pulse" cx="121" cy="29" r="8"/><text class="label" x="75" y="185" text-anchor="middle">selected</text></g><g transform="translate(745 300)"><rect class="light-tile" width="150" height="150" rx="42"/><use href="#state-equalizer" x="43" y="38" width="64" height="64"/><text class="label" x="75" y="185" text-anchor="middle">equalizer</text></g><g transform="translate(745 600)"><rect class="dark-tile" width="150" height="150" rx="42"/><use href="#state-dark-equalizer" x="43" y="38" width="64" height="64"/><text class="label-dark" x="75" y="185" text-anchor="middle">dark</text></g><g class="active-icon" transform="translate(745 900)"><rect class="active-tile" width="150" height="150" rx="52"/><use href="#state-equalizer" x="43" y="38" width="64" height="64"/><circle class="pulse" cx="121" cy="29" r="8"/><text class="label" x="75" y="185" text-anchor="middle">selected</text></g><g transform="translate(950 300)"><rect class="light-tile" width="150" height="150" rx="42"/><use href="#state-catAcg" x="43" y="38" width="64" height="64"/><text class="label" x="75" y="185" text-anchor="middle">catAcg</text></g><g transform="translate(950 600)"><rect class="dark-tile" width="150" height="150" rx="42"/><use href="#state-dark-catAcg" x="43" y="38" width="64" height="64"/><text class="label-dark" x="75" y="185" text-anchor="middle">dark</text></g><g class="active-icon" transform="translate(950 900)"><rect class="active-tile" width="150" height="150" rx="52"/><use href="#state-catAcg" x="43" y="38" width="64" height="64"/><circle class="pulse" cx="121" cy="29" r="8"/><text class="label" x="75" y="185" text-anchor="middle">selected</text></g><g transform="translate(1155 300)"><rect class="light-tile" width="150" height="150" rx="42"/><use href="#state-floatingBall" x="43" y="38" width="64" height="64"/><text class="label" x="75" y="185" text-anchor="middle">floatingBall</text></g><g transform="translate(1155 600)"><rect class="dark-tile" width="150" height="150" rx="42"/><use href="#state-dark-floatingBall" x="43" y="38" width="64" height="64"/><text class="label-dark" x="75" y="185" text-anchor="middle">dark</text></g><g class="active-icon" transform="translate(1155 900)"><rect class="active-tile" width="150" height="150" rx="52"/><use href="#state-floatingBall" x="43" y="38" width="64" height="64"/><circle class="pulse" cx="121" cy="29" r="8"/><text class="label" x="75" y="185" text-anchor="middle">selected</text></g>
</svg>
