<svg xmlns="http://www.w3.org/2000/svg" width="1440" height="1050" viewBox="0 0 1440 1050"><rect width="1440" height="1050" fill="#0D0C11"/><text x="60" y="54" fill="#F4F1FA" font-family="-apple-system,BlinkMacSystemFont,Segoe UI,sans-serif" font-size="28" font-weight="700">Aside Carved Solid</text><text x="60" y="82" fill="#AAA3B8" font-family="-apple-system,BlinkMacSystemFont,Segoe UI,sans-serif" font-size="14">Pilot · rendered at 16 / 20 / 24 / 48 px</text><rect x="30" y="110" width="1380" height="430" rx="26" fill="#F8F7FB"/><text x="58" y="145" fill="#332D40" font-family="-apple-system,BlinkMacSystemFont,Segoe UI,sans-serif" font-size="13" font-weight="700" letter-spacing="1.6">LIGHT</text><rect x="50" y="165" width="207" height="156" rx="18" fill="#FFFFFF" stroke="#ECE9F1"/><text x="66" y="191" fill="#332D40" font-family="-apple-system,BlinkMacSystemFont,Segoe UI,sans-serif" font-size="13" font-weight="600">Home</text><text x="66" y="208" fill="#332D40" opacity=".5" font-family="-apple-system,BlinkMacSystemFont,Segoe UI,sans-serif" font-size="10">home</text><g transform="translate(66 255.0) scale(0.666667)"><title aria-hidden="true">Aside Home</title><path fill="#241d33" fill-rule="evenodd" d="M2.6 10.1 10.9 3c.6-.5 1.6-.5 2.2 0l8.3 7.1c.5.4.2 1.2-.5 1.2h-1.4v8c0 1.1-.9 2-2 2h-11c-1.1 0-2-.9-2-2v-8H3.1c-.7 0-1-.8-.5-1.2m6.9 11.2v-5.1c0-1.4 1.1-2.5 2.5-2.5s2.5 1.1 2.5 2.5v5.1z" clip-rule="evenodd"/><path fill="#705ce8" d="M15.8 9.4h3.1a1.3 1.3 0 0 1 0 2.6h-3.1a1.3 1.3 0 0 1 0-2.6"/></g><g transform="translate(97 253.0) scale(0.833333)"><title aria-hidden="true">Aside Home</title><path fill="#241d33" fill-rule="evenodd" d="M2.6 10.1 10.9 3c.6-.5 1.6-.5 2.2 0l8.3 7.1c.5.4.2 1.2-.5 1.2h-1.4v8c0 1.1-.9 2-2 2h-11c-1.1 0-2-.9-2-2v-8H3.1c-.7 0-1-.8-.5-1.2m6.9 11.2v-5.1c0-1.4 1.1-2.5 2.5-2.5s2.5 1.1 2.5 2.5v5.1z" clip-rule="evenodd"/><path fill="#705ce8" d="M15.8 9.4h3.1a1.3 1.3 0 0 1 0 2.6h-3.1a1.3 1.3 0 0 1 0-2.6"/></g><g transform="translate(132 251.0) scale(1.000000)"><title aria-hidden="true">Aside Home</title><path fill="#241d33" fill-rule="evenodd" d="M2.6 10.1 10.9 3c.6-.5 1.6-.5 2.2 0l8.3 7.1c.5.4.2 1.2-.5 1.2h-1.4v8c0 1.1-.9 2-2 2h-11c-1.1 0-2-.9-2-2v-8H3.1c-.7 0-1-.8-.5-1.2m6.9 11.2v-5.1c0-1.4 1.1-2.5 2.5-2.5s2.5 1.1 2.5 2.5v5.1z" clip-rule="evenodd"/><path fill="#705ce8" d="M15.8 9.4h3.1a1.3 1.3 0 0 1 0 2.6h-3.1a1.3 1.3 0 0 1 0-2.6"/></g><g transform="translate(171 239.0) scale(2.000000)"><title aria-hidden="true">Aside Home</title><path fill="#241d33" fill-rule="evenodd" d="M2.6 10.1 10.9 3c.6-.5 1.6-.5 2.2 0l8.3 7.1c.5.4.2 1.2-.5 1.2h-1.4v8c0 1.1-.9 2-2 2h-11c-1.1 0-2-.9-2-2v-8H3.1c-.7 0-1-.8-.5-1.2m6.9 11.2v-5.1c0-1.4 1.1-2.5 2.5-2.5s2.5 1.1 2.5 2.5v5.1z" clip-rule="evenodd"/><path fill="#705ce8" d="M15.8 9.4h3.1a1.3 1.3 0 0 1 0 2.6h-3.1a1.3 1.3 0 0 1 0-2.6"/></g><rect x="275" y="165" width="207" height="156" rx="18" fill="#FFFFFF" stroke="#ECE9F1"/><text x="291" y="191" fill="#332D40" font-family="-apple-system,BlinkMacSystemFont,Segoe UI,sans-serif" font-size="13" font-weight="600">Podcast</text><text x="291" y="208" fill="#332D40" opacity=".5" font-family="-apple-system,BlinkMacSystemFont,Segoe UI,sans-serif" font-size="10">podcast</text><g transform="translate(291 255.0) scale(0.666667)"><title aria-hidden="true">Aside Podcast</title><rect width="8" height="12" x="8" y="2.5" fill="#241d33" rx="4"/><path fill="#241d33" d="M4.5 10h3c0 3.1 1.7 4.9 4.5 4.9s4.5-1.8 4.5-4.9h3c0 4.3-2.4 7.2-6 7.9V20h3v2h-9v-2h3v-2.1c-3.6-.7-6-3.6-6-7.9"/><rect width="3" height="5.6" x="10.5" y="5.2" fill="#705ce8" rx="1.5"/></g><g transform="translate(322 253.0) scale(0.833333)"><title aria-hidden="true">Aside Podcast</title><rect width="8" height="12" x="8" y="2.5" fill="#241d33" rx="4"/><path fill="#241d33" d="M4.5 10h3c0 3.1 1.7 4.9 4.5 4.9s4.5-1.8 4.5-4.9h3c0 4.3-2.4 7.2-6 7.9V20h3v2h-9v-2h3v-2.1c-3.6-.7-6-3.6-6-7.9"/><rect width="3" height="5.6" x="10.5" y="5.2" fill="#705ce8" rx="1.5"/></g><g transform="translate(357 251.0) scale(1.000000)"><title aria-hidden="true">Aside Podcast</title><rect width="8" height="12" x="8" y="2.5" fill="#241d33" rx="4"/><path fill="#241d33" d="M4.5 10h3c0 3.1 1.7 4.9 4.5 4.9s4.5-1.8 4.5-4.9h3c0 4.3-2.4 7.2-6 7.9V20h3v2h-9v-2h3v-2.1c-3.6-.7-6-3.6-6-7.9"/><rect width="3" height="5.6" x="10.5" y="5.2" fill="#705ce8" rx="1.5"/></g><g transform="translate(396 239.0) scale(2.000000)"><title aria-hidden="true">Aside Podcast</title><rect width="8" height="12" x="8" y="2.5" fill="#241d33" rx="4"/><path fill="#241d33" d="M4.5 10h3c0 3.1 1.7 4.9 4.5 4.9s4.5-1.8 4.5-4.9h3c0 4.3-2.4 7.2-6 7.9V20h3v2h-9v-2h3v-2.1c-3.6-.7-6-3.6-6-7.9"/><rect width="3" height="5.6" x="10.5" y="5.2" fill="#705ce8" rx="1.5"/></g><rect x="500" y="165" width="207" height="156" rx="18" fill="#FFFFFF" stroke="#ECE9F1"/><text x="516" y="191" fill="#332D40" font-family="-apple-system,BlinkMacSystemFont,Segoe UI,sans-serif" font-size="13" font-weight="600">Library</text><text x="516" y="208" fill="#332D40" opacity=".5" font-family="-apple-system,BlinkMacSystemFont,Segoe UI,sans-serif" font-size="10">library</text><g transform="translate(516 255.0) scale(0.666667)"><title aria-hidden="true">Aside Library</title><rect width="8" height="16" x="3" y="4" fill="#241d33" rx="2.4"/><path fill="#705ce8" fill-rule="evenodd" d="M12 3.8c0-1 .8-1.8 1.8-1.8h5.4c1 0 1.8.8 1.8 1.8v16.4c0 1-.8 1.8-1.8 1.8h-5.4c-1 0-1.8-.8-1.8-1.8zm4.5 5.7a2.5 2.5 0 1 0 0 5 2.5 2.5 0 0 0 0-5" clip-rule="evenodd"/></g><g transform="translate(547 253.0) scale(0.833333)"><title aria-hidden="true">Aside Library</title><rect width="8" height="16" x="3" y="4" fill="#241d33" rx="2.4"/><path fill="#705ce8" fill-rule="evenodd" d="M12 3.8c0-1 .8-1.8 1.8-1.8h5.4c1 0 1.8.8 1.8 1.8v16.4c0 1-.8 1.8-1.8 1.8h-5.4c-1 0-1.8-.8-1.8-1.8zm4.5 5.7a2.5 2.5 0 1 0 0 5 2.5 2.5 0 0 0 0-5" clip-rule="evenodd"/></g><g transform="translate(582 251.0) scale(1.000000)"><title aria-hidden="true">Aside Library</title><rect width="8" height="16" x="3" y="4" fill="#241d33" rx="2.4"/><path fill="#705ce8" fill-rule="evenodd" d="M12 3.8c0-1 .8-1.8 1.8-1.8h5.4c1 0 1.8.8 1.8 1.8v16.4c0 1-.8 1.8-1.8 1.8h-5.4c-1 0-1.8-.8-1.8-1.8zm4.5 5.7a2.5 2.5 0 1 0 0 5 2.5 2.5 0 0 0 0-5" clip-rule="evenodd"/></g><g transform="translate(621 239.0) scale(2.000000)"><title aria-hidden="true">Aside Library</title><rect width="8" height="16" x="3" y="4" fill="#241d33" rx="2.4"/><path fill="#705ce8" fill-rule="evenodd" d="M12 3.8c0-1 .8-1.8 1.8-1.8h5.4c1 0 1.8.8 1.8 1.8v16.4c0 1-.8 1.8-1.8 1.8h-5.4c-1 0-1.8-.8-1.8-1.8zm4.5 5.7a2.5 2.5 0 1 0 0 5 2.5 2.5 0 0 0 0-5" clip-rule="evenodd"/></g><rect x="725" y="165" width="207" height="156" rx="18" fill="#FFFFFF" stroke="#ECE9F1"/><text x="741" y="191" fill="#332D40" font-family="-apple-system,BlinkMacSystemFont,Segoe UI,sans-serif" font-size="13" font-weight="600">Search</text><text x="741" y="208" fill="#332D40" opacity=".5" font-family="-apple-system,BlinkMacSystemFont,Segoe UI,sans-serif" font-size="10">search</text><g transform="translate(741 255.0) scale(0.666667)"><title aria-hidden="true">Aside Search</title><path fill="#241d33" fill-rule="evenodd" d="M10.2 2.5a7.7 7.7 0 1 0 0 15.4 7.7 7.7 0 0 0 0-15.4m0 3.5a4.2 4.2 0 1 0 0 8.4 4.2 4.2 0 0 0 0-8.4" clip-rule="evenodd"/><path fill="#705ce8" d="m15 14.5 6.1 5.3c.8.7.8 1.5.2 2.1s-1.5.6-2.1-.2L14 15.6z"/></g><g transform="translate(772 253.0) scale(0.833333)"><title aria-hidden="true">Aside Search</title><path fill="#241d33" fill-rule="evenodd" d="M10.2 2.5a7.7 7.7 0 1 0 0 15.4 7.7 7.7 0 0 0 0-15.4m0 3.5a4.2 4.2 0 1 0 0 8.4 4.2 4.2 0 0 0 0-8.4" clip-rule="evenodd"/><path fill="#705ce8" d="m15 14.5 6.1 5.3c.8.7.8 1.5.2 2.1s-1.5.6-2.1-.2L14 15.6z"/></g><g transform="translate(807 251.0) scale(1.000000)"><title aria-hidden="true">Aside Search</title><path fill="#241d33" fill-rule="evenodd" d="M10.2 2.5a7.7 7.7 0 1 0 0 15.4 7.7 7.7 0 0 0 0-15.4m0 3.5a4.2 4.2 0 1 0 0 8.4 4.2 4.2 0 0 0 0-8.4" clip-rule="evenodd"/><path fill="#705ce8" d="m15 14.5 6.1 5.3c.8.7.8 1.5.2 2.1s-1.5.6-2.1-.2L14 15.6z"/></g><g transform="translate(846 239.0) scale(2.000000)"><title aria-hidden="true">Aside Search</title><path fill="#241d33" fill-rule="evenodd" d="M10.2 2.5a7.7 7.7 0 1 0 0 15.4 7.7 7.7 0 0 0 0-15.4m0 3.5a4.2 4.2 0 1 0 0 8.4 4.2 4.2 0 0 0 0-8.4" clip-rule="evenodd"/><path fill="#705ce8" d="m15 14.5 6.1 5.3c.8.7.8 1.5.2 2.1s-1.5.6-2.1-.2L14 15.6z"/></g><rect x="950" y="165" width="207" height="156" rx="18" fill="#FFFFFF" stroke="#ECE9F1"/><text x="966" y="191" fill="#332D40" font-family="-apple-system,BlinkMacSystemFont,Segoe UI,sans-serif" font-size="13" font-weight="600">Profile</text><text x="966" y="208" fill="#332D40" opacity=".5" font-family="-apple-system,BlinkMacSystemFont,Segoe UI,sans-serif" font-size="10">profile</text><g transform="translate(966 255.0) scale(0.666667)"><title aria-hidden="true">Aside Profile</title><circle cx="12" cy="7.1" r="4.6" fill="#705ce8"/><path fill="#241d33" d="M3.2 20.2c.6-4.7 3.8-7.3 8.8-7.3s8.2 2.6 8.8 7.3c.1 1-.7 1.8-1.6 1.8H4.8c-.9 0-1.7-.8-1.6-1.8"/></g><g transform="translate(997 253.0) scale(0.833333)"><title aria-hidden="true">Aside Profile</title><circle cx="12" cy="7.1" r="4.6" fill="#705ce8"/><path fill="#241d33" d="M3.2 20.2c.6-4.7 3.8-7.3 8.8-7.3s8.2 2.6 8.8 7.3c.1 1-.7 1.8-1.6 1.8H4.8c-.9 0-1.7-.8-1.6-1.8"/></g><g transform="translate(1032 251.0) scale(1.000000)"><title aria-hidden="true">Aside Profile</title><circle cx="12" cy="7.1" r="4.6" fill="#705ce8"/><path fill="#241d33" d="M3.2 20.2c.6-4.7 3.8-7.3 8.8-7.3s8.2 2.6 8.8 7.3c.1 1-.7 1.8-1.6 1.8H4.8c-.9 0-1.7-.8-1.6-1.8"/></g><g transform="translate(1071 239.0) scale(2.000000)"><title aria-hidden="true">Aside Profile</title><circle cx="12" cy="7.1" r="4.6" fill="#705ce8"/><path fill="#241d33" d="M3.2 20.2c.6-4.7 3.8-7.3 8.8-7.3s8.2 2.6 8.8 7.3c.1 1-.7 1.8-1.6 1.8H4.8c-.9 0-1.7-.8-1.6-1.8"/></g><rect x="1175" y="165" width="207" height="156" rx="18" fill="#FFFFFF" stroke="#ECE9F1"/><text x="1191" y="191" fill="#332D40" font-family="-apple-system,BlinkMacSystemFont,Segoe UI,sans-serif" font-size="13" font-weight="600">Play</text><text x="1191" y="208" fill="#332D40" opacity=".5" font-family="-apple-system,BlinkMacSystemFont,Segoe UI,sans-serif" font-size="10">play</text><g transform="translate(1191 255.0) scale(0.666667)"><title aria-hidden="true">Aside Play</title><rect width="4" height="12" x="3" y="6" fill="#705ce8" rx="2"/><path fill="#241d33" d="M8.6 4.7c0-1.5 1.6-2.4 2.9-1.6l9.2 7.1c1.1.9 1.1 2.6 0 3.5l-9.2 7.1c-1.2.9-2.9 0-2.9-1.5z"/></g><g transform="translate(1222 253.0) scale(0.833333)"><title aria-hidden="true">Aside Play</title><rect width="4" height="12" x="3" y="6" fill="#705ce8" rx="2"/><path fill="#241d33" d="M8.6 4.7c0-1.5 1.6-2.4 2.9-1.6l9.2 7.1c1.1.9 1.1 2.6 0 3.5l-9.2 7.1c-1.2.9-2.9 0-2.9-1.5z"/></g><g transform="translate(1257 251.0) scale(1.000000)"><title aria-hidden="true">Aside Play</title><rect width="4" height="12" x="3" y="6" fill="#705ce8" rx="2"/><path fill="#241d33" d="M8.6 4.7c0-1.5 1.6-2.4 2.9-1.6l9.2 7.1c1.1.9 1.1 2.6 0 3.5l-9.2 7.1c-1.2.9-2.9 0-2.9-1.5z"/></g><g transform="translate(1296 239.0) scale(2.000000)"><title aria-hidden="true">Aside Play</title><rect width="4" height="12" x="3" y="6" fill="#705ce8" rx="2"/><path fill="#241d33" d="M8.6 4.7c0-1.5 1.6-2.4 2.9-1.6l9.2 7.1c1.1.9 1.1 2.6 0 3.5l-9.2 7.1c-1.2.9-2.9 0-2.9-1.5z"/></g><rect x="50" y="339" width="207" height="156" rx="18" fill="#FFFFFF" stroke="#ECE9F1"/><text x="66" y="365" fill="#332D40" font-family="-apple-system,BlinkMacSystemFont,Segoe UI,sans-serif" font-size="13" font-weight="600">Liked</text><text x="66" y="382" fill="#332D40" opacity=".5" font-family="-apple-system,BlinkMacSystemFont,Segoe UI,sans-serif" font-size="10">liked</text><g transform="translate(66 429.0) scale(0.666667)"><title aria-hidden="true">Aside Liked</title><path fill="#241d33" d="M12 21.5C9.2 19 2.7 14.8 2.7 8.9c0-3.7 2.4-6.2 5.7-6.2 1.7 0 2.9.7 3.6 1.8.7-1.1 1.9-1.8 3.6-1.8 3.3 0 5.7 2.5 5.7 6.2 0 5.9-6.5 10.1-9.3 12.6"/><path fill="#705ce8" d="m6.6 11.5 2.2-1.8 2.6 3.1L17 7.2l2 2-7.8 7.8z"/></g><g transform="translate(97 427.0) scale(0.833333)"><title aria-hidden="true">Aside Liked</title><path fill="#241d33" d="M12 21.5C9.2 19 2.7 14.8 2.7 8.9c0-3.7 2.4-6.2 5.7-6.2 1.7 0 2.9.7 3.6 1.8.7-1.1 1.9-1.8 3.6-1.8 3.3 0 5.7 2.5 5.7 6.2 0 5.9-6.5 10.1-9.3 12.6"/><path fill="#705ce8" d="m6.6 11.5 2.2-1.8 2.6 3.1L17 7.2l2 2-7.8 7.8z"/></g><g transform="translate(132 425.0) scale(1.000000)"><title aria-hidden="true">Aside Liked</title><path fill="#241d33" d="M12 21.5C9.2 19 2.7 14.8 2.7 8.9c0-3.7 2.4-6.2 5.7-6.2 1.7 0 2.9.7 3.6 1.8.7-1.1 1.9-1.8 3.6-1.8 3.3 0 5.7 2.5 5.7 6.2 0 5.9-6.5 10.1-9.3 12.6"/><path fill="#705ce8" d="m6.6 11.5 2.2-1.8 2.6 3.1L17 7.2l2 2-7.8 7.8z"/></g><g transform="translate(171 413.0) scale(2.000000)"><title aria-hidden="true">Aside Liked</title><path fill="#241d33" d="M12 21.5C9.2 19 2.7 14.8 2.7 8.9c0-3.7 2.4-6.2 5.7-6.2 1.7 0 2.9.7 3.6 1.8.7-1.1 1.9-1.8 3.6-1.8 3.3 0 5.7 2.5 5.7 6.2 0 5.9-6.5 10.1-9.3 12.6"/><path fill="#705ce8" d="m6.6 11.5 2.2-1.8 2.6 3.1L17 7.2l2 2-7.8 7.8z"/></g><rect x="275" y="339" width="207" height="156" rx="18" fill="#FFFFFF" stroke="#ECE9F1"/><text x="291" y="365" fill="#332D40" font-family="-apple-system,BlinkMacSystemFont,Segoe UI,sans-serif" font-size="13" font-weight="600">Settings</text><text x="291" y="382" fill="#332D40" opacity=".5" font-family="-apple-system,BlinkMacSystemFont,Segoe UI,sans-serif" font-size="10">settings</text><g transform="translate(291 429.0) scale(0.666667)"><title aria-hidden="true">Aside Settings</title><path fill="#241d33" fill-rule="evenodd" d="M12 5a7 7 0 1 1 0 14 7 7 0 0 1 0-14m0 4a3 3 0 1 0 0 6 3 3 0 0 0 0-6" clip-rule="evenodd"/><rect width="4" height="5" x="10" y="2" fill="#705ce8" rx="2"/><rect width="4" height="5" x="10" y="17" fill="#241d33" rx="2"/><rect width="5" height="4" x="2" y="10" fill="#241d33" rx="2"/><rect width="5" height="4" x="17" y="10" fill="#241d33" rx="2"/></g><g transform="translate(322 427.0) scale(0.833333)"><title aria-hidden="true">Aside Settings</title><path fill="#241d33" fill-rule="evenodd" d="M12 5a7 7 0 1 1 0 14 7 7 0 0 1 0-14m0 4a3 3 0 1 0 0 6 3 3 0 0 0 0-6" clip-rule="evenodd"/><rect width="4" height="5" x="10" y="2" fill="#705ce8" rx="2"/><rect width="4" height="5" x="10" y="17" fill="#241d33" rx="2"/><rect width="5" height="4" x="2" y="10" fill="#241d33" rx="2"/><rect width="5" height="4" x="17" y="10" fill="#241d33" rx="2"/></g><g transform="translate(357 425.0) scale(1.000000)"><title aria-hidden="true">Aside Settings</title><path fill="#241d33" fill-rule="evenodd" d="M12 5a7 7 0 1 1 0 14 7 7 0 0 1 0-14m0 4a3 3 0 1 0 0 6 3 3 0 0 0 0-6" clip-rule="evenodd"/><rect width="4" height="5" x="10" y="2" fill="#705ce8" rx="2"/><rect width="4" height="5" x="10" y="17" fill="#241d33" rx="2"/><rect width="5" height="4" x="2" y="10" fill="#241d33" rx="2"/><rect width="5" height="4" x="17" y="10" fill="#241d33" rx="2"/></g><g transform="translate(396 413.0) scale(2.000000)"><title aria-hidden="true">Aside Settings</title><path fill="#241d33" fill-rule="evenodd" d="M12 5a7 7 0 1 1 0 14 7 7 0 0 1 0-14m0 4a3 3 0 1 0 0 6 3 3 0 0 0 0-6" clip-rule="evenodd"/><rect width="4" height="5" x="10" y="2" fill="#705ce8" rx="2"/><rect width="4" height="5" x="10" y="17" fill="#241d33" rx="2"/><rect width="5" height="4" x="2" y="10" fill="#241d33" rx="2"/><rect width="5" height="4" x="17" y="10" fill="#241d33" rx="2"/></g><rect x="500" y="339" width="207" height="156" rx="18" fill="#FFFFFF" stroke="#ECE9F1"/><text x="516" y="365" fill="#332D40" font-family="-apple-system,BlinkMacSystemFont,Segoe UI,sans-serif" font-size="13" font-weight="600">Equalizer</text><text x="516" y="382" fill="#332D40" opacity=".5" font-family="-apple-system,BlinkMacSystemFont,Segoe UI,sans-serif" font-size="10">equalizer</text><g transform="translate(516 429.0) scale(0.666667)"><title aria-hidden="true">Aside Equalizer</title><rect width="3.5" height="18" x="3" y="3" fill="#241d33" rx="1.75"/><rect width="3.5" height="18" x="10.25" y="3" fill="#241d33" rx="1.75"/><rect width="3.5" height="18" x="17.5" y="3" fill="#241d33" rx="1.75"/><rect width="5.5" height="4.5" x="2" y="6" fill="#705ce8" rx="2.25"/><rect width="5.5" height="4.5" x="9.25" y="13.5" fill="#705ce8" rx="2.25"/><rect width="5.5" height="4.5" x="16.5" y="9" fill="#705ce8" rx="2.25"/></g><g transform="translate(547 427.0) scale(0.833333)"><title aria-hidden="true">Aside Equalizer</title><rect width="3.5" height="18" x="3" y="3" fill="#241d33" rx="1.75"/><rect width="3.5" height="18" x="10.25" y="3" fill="#241d33" rx="1.75"/><rect width="3.5" height="18" x="17.5" y="3" fill="#241d33" rx="1.75"/><rect width="5.5" height="4.5" x="2" y="6" fill="#705ce8" rx="2.25"/><rect width="5.5" height="4.5" x="9.25" y="13.5" fill="#705ce8" rx="2.25"/><rect width="5.5" height="4.5" x="16.5" y="9" fill="#705ce8" rx="2.25"/></g><g transform="translate(582 425.0) scale(1.000000)"><title aria-hidden="true">Aside Equalizer</title><rect width="3.5" height="18" x="3" y="3" fill="#241d33" rx="1.75"/><rect width="3.5" height="18" x="10.25" y="3" fill="#241d33" rx="1.75"/><rect width="3.5" height="18" x="17.5" y="3" fill="#241d33" rx="1.75"/><rect width="5.5" height="4.5" x="2" y="6" fill="#705ce8" rx="2.25"/><rect width="5.5" height="4.5" x="9.25" y="13.5" fill="#705ce8" rx="2.25"/><rect width="5.5" height="4.5" x="16.5" y="9" fill="#705ce8" rx="2.25"/></g><g transform="translate(621 413.0) scale(2.000000)"><title aria-hidden="true">Aside Equalizer</title><rect width="3.5" height="18" x="3" y="3" fill="#241d33" rx="1.75"/><rect width="3.5" height="18" x="10.25" y="3" fill="#241d33" rx="1.75"/><rect width="3.5" height="18" x="17.5" y="3" fill="#241d33" rx="1.75"/><rect width="5.5" height="4.5" x="2" y="6" fill="#705ce8" rx="2.25"/><rect width="5.5" height="4.5" x="9.25" y="13.5" fill="#705ce8" rx="2.25"/><rect width="5.5" height="4.5" x="16.5" y="9" fill="#705ce8" rx="2.25"/></g><rect x="725" y="339" width="207" height="156" rx="18" fill="#FFFFFF" stroke="#ECE9F1"/><text x="741" y="365" fill="#332D40" font-family="-apple-system,BlinkMacSystemFont,Segoe UI,sans-serif" font-size="13" font-weight="600">Download</text><text x="741" y="382" fill="#332D40" opacity=".5" font-family="-apple-system,BlinkMacSystemFont,Segoe UI,sans-serif" font-size="10">download</text><g transform="translate(741 429.0) scale(0.666667)"><title aria-hidden="true">Aside Download</title><path fill="#241d33" d="M9.5 3.7c0-.9.7-1.7 1.7-1.7h1.6c.9 0 1.7.7 1.7 1.7v8.2h3.2c1.3 0 2 1.6 1.1 2.5l-5.6 5.5c-.6.6-1.6.6-2.2 0l-5.7-5.5c-.9-.9-.3-2.5 1.1-2.5h3.2V3.7Z"/><rect width="16" height="2" x="4" y="20" fill="#705ce8" rx="1"/></g><g transform="translate(772 427.0) scale(0.833333)"><title aria-hidden="true">Aside Download</title><path fill="#241d33" d="M9.5 3.7c0-.9.7-1.7 1.7-1.7h1.6c.9 0 1.7.7 1.7 1.7v8.2h3.2c1.3 0 2 1.6 1.1 2.5l-5.6 5.5c-.6.6-1.6.6-2.2 0l-5.7-5.5c-.9-.9-.3-2.5 1.1-2.5h3.2V3.7Z"/><rect width="16" height="2" x="4" y="20" fill="#705ce8" rx="1"/></g><g transform="translate(807 425.0) scale(1.000000)"><title aria-hidden="true">Aside Download</title><path fill="#241d33" d="M9.5 3.7c0-.9.7-1.7 1.7-1.7h1.6c.9 0 1.7.7 1.7 1.7v8.2h3.2c1.3 0 2 1.6 1.1 2.5l-5.6 5.5c-.6.6-1.6.6-2.2 0l-5.7-5.5c-.9-.9-.3-2.5 1.1-2.5h3.2V3.7Z"/><rect width="16" height="2" x="4" y="20" fill="#705ce8" rx="1"/></g><g transform="translate(846 413.0) scale(2.000000)"><title aria-hidden="true">Aside Download</title><path fill="#241d33" d="M9.5 3.7c0-.9.7-1.7 1.7-1.7h1.6c.9 0 1.7.7 1.7 1.7v8.2h3.2c1.3 0 2 1.6 1.1 2.5l-5.6 5.5c-.6.6-1.6.6-2.2 0l-5.7-5.5c-.9-.9-.3-2.5 1.1-2.5h3.2V3.7Z"/><rect width="16" height="2" x="4" y="20" fill="#705ce8" rx="1"/></g><rect x="950" y="339" width="207" height="156" rx="18" fill="#FFFFFF" stroke="#ECE9F1"/><text x="966" y="365" fill="#332D40" font-family="-apple-system,BlinkMacSystemFont,Segoe UI,sans-serif" font-size="13" font-weight="600">Waveform</text><text x="966" y="382" fill="#332D40" opacity=".5" font-family="-apple-system,BlinkMacSystemFont,Segoe UI,sans-serif" font-size="10">waveform</text><g transform="translate(966 429.0) scale(0.666667)"><title aria-hidden="true">Aside Waveform</title><rect width="3" height="6" x="2" y="9" fill="#241d33" rx="1.5"/><rect width="3" height="12" x="6.25" y="6" fill="#241d33" rx="1.5"/><rect width="3" height="18" x="10.5" y="3" fill="#705ce8" rx="1.5"/><rect width="3" height="12" x="14.75" y="6" fill="#241d33" rx="1.5"/><rect width="3" height="6" x="19" y="9" fill="#241d33" rx="1.5"/></g><g transform="translate(997 427.0) scale(0.833333)"><title aria-hidden="true">Aside Waveform</title><rect width="3" height="6" x="2" y="9" fill="#241d33" rx="1.5"/><rect width="3" height="12" x="6.25" y="6" fill="#241d33" rx="1.5"/><rect width="3" height="18" x="10.5" y="3" fill="#705ce8" rx="1.5"/><rect width="3" height="12" x="14.75" y="6" fill="#241d33" rx="1.5"/><rect width="3" height="6" x="19" y="9" fill="#241d33" rx="1.5"/></g><g transform="translate(1032 425.0) scale(1.000000)"><title aria-hidden="true">Aside Waveform</title><rect width="3" height="6" x="2" y="9" fill="#241d33" rx="1.5"/><rect width="3" height="12" x="6.25" y="6" fill="#241d33" rx="1.5"/><rect width="3" height="18" x="10.5" y="3" fill="#705ce8" rx="1.5"/><rect width="3" height="12" x="14.75" y="6" fill="#241d33" rx="1.5"/><rect width="3" height="6" x="19" y="9" fill="#241d33" rx="1.5"/></g><g transform="translate(1071 413.0) scale(2.000000)"><title aria-hidden="true">Aside Waveform</title><rect width="3" height="6" x="2" y="9" fill="#241d33" rx="1.5"/><rect width="3" height="12" x="6.25" y="6" fill="#241d33" rx="1.5"/><rect width="3" height="18" x="10.5" y="3" fill="#705ce8" rx="1.5"/><rect width="3" height="12" x="14.75" y="6" fill="#241d33" rx="1.5"/><rect width="3" height="6" x="19" y="9" fill="#241d33" rx="1.5"/></g><rect x="1175" y="339" width="207" height="156" rx="18" fill="#FFFFFF" stroke="#ECE9F1"/><text x="1191" y="365" fill="#332D40" font-family="-apple-system,BlinkMacSystemFont,Segoe UI,sans-serif" font-size="13" font-weight="600">Music Category</text><text x="1191" y="382" fill="#332D40" opacity=".5" font-family="-apple-system,BlinkMacSystemFont,Segoe UI,sans-serif" font-size="10">catMusic</text><g transform="translate(1191 429.0) scale(0.666667)"><title aria-hidden="true">Aside Music Category</title><path fill="#241d33" d="m4 8.2 1.2-4.7 4.2 2a10 10 0 0 1 2.6-.3c.9 0 1.8.1 2.6.3l4.2-2L20 8.2v7.1c0 3.7-3.2 6.2-8 6.2S4 19 4 15.3z"/><path fill="#705ce8" d="M15.1 7.3v7.1a2.8 2.8 0 1 1-1.8-2.6V8.7l5-1.4v4.9a2.8 2.8 0 1 1-1.8-2.6V6.9z"/></g><g transform="translate(1222 427.0) scale(0.833333)"><title aria-hidden="true">Aside Music Category</title><path fill="#241d33" d="m4 8.2 1.2-4.7 4.2 2a10 10 0 0 1 2.6-.3c.9 0 1.8.1 2.6.3l4.2-2L20 8.2v7.1c0 3.7-3.2 6.2-8 6.2S4 19 4 15.3z"/><path fill="#705ce8" d="M15.1 7.3v7.1a2.8 2.8 0 1 1-1.8-2.6V8.7l5-1.4v4.9a2.8 2.8 0 1 1-1.8-2.6V6.9z"/></g><g transform="translate(1257 425.0) scale(1.000000)"><title aria-hidden="true">Aside Music Category</title><path fill="#241d33" d="m4 8.2 1.2-4.7 4.2 2a10 10 0 0 1 2.6-.3c.9 0 1.8.1 2.6.3l4.2-2L20 8.2v7.1c0 3.7-3.2 6.2-8 6.2S4 19 4 15.3z"/><path fill="#705ce8" d="M15.1 7.3v7.1a2.8 2.8 0 1 1-1.8-2.6V8.7l5-1.4v4.9a2.8 2.8 0 1 1-1.8-2.6V6.9z"/></g><g transform="translate(1296 413.0) scale(2.000000)"><title aria-hidden="true">Aside Music Category</title><path fill="#241d33" d="m4 8.2 1.2-4.7 4.2 2a10 10 0 0 1 2.6-.3c.9 0 1.8.1 2.6.3l4.2-2L20 8.2v7.1c0 3.7-3.2 6.2-8 6.2S4 19 4 15.3z"/><path fill="#705ce8" d="M15.1 7.3v7.1a2.8 2.8 0 1 1-1.8-2.6V8.7l5-1.4v4.9a2.8 2.8 0 1 1-1.8-2.6V6.9z"/></g><rect x="30" y="570" width="1380" height="430" rx="26" fill="#121017"/><text x="58" y="605" fill="#F4F1FA" font-family="-apple-system,BlinkMacSystemFont,Segoe UI,sans-serif" font-size="13" font-weight="700" letter-spacing="1.6">DARK</text><rect x="50" y="625" width="207" height="156" rx="18" fill="#1B1823" stroke="#292532"/><text x="66" y="651" fill="#F4F1FA" font-family="-apple-system,BlinkMacSystemFont,Segoe UI,sans-serif" font-size="13" font-weight="600">Home</text><text x="66" y="668" fill="#F4F1FA" opacity=".5" font-family="-apple-system,BlinkMacSystemFont,Segoe UI,sans-serif" font-size="10">home</text><g transform="translate(66 715.0) scale(0.666667)"><title aria-hidden="true">Aside Home</title><path fill="#f4f1fa" fill-rule="evenodd" d="M2.6 10.1 10.9 3c.6-.5 1.6-.5 2.2 0l8.3 7.1c.5.4.2 1.2-.5 1.2h-1.4v8c0 1.1-.9 2-2 2h-11c-1.1 0-2-.9-2-2v-8H3.1c-.7 0-1-.8-.5-1.2m6.9 11.2v-5.1c0-1.4 1.1-2.5 2.5-2.5s2.5 1.1 2.5 2.5v5.1z" clip-rule="evenodd"/><path fill="#a493ff" d="M15.8 9.4h3.1a1.3 1.3 0 0 1 0 2.6h-3.1a1.3 1.3 0 0 1 0-2.6"/></g><g transform="translate(97 713.0) scale(0.833333)"><title aria-hidden="true">Aside Home</title><path fill="#f4f1fa" fill-rule="evenodd" d="M2.6 10.1 10.9 3c.6-.5 1.6-.5 2.2 0l8.3 7.1c.5.4.2 1.2-.5 1.2h-1.4v8c0 1.1-.9 2-2 2h-11c-1.1 0-2-.9-2-2v-8H3.1c-.7 0-1-.8-.5-1.2m6.9 11.2v-5.1c0-1.4 1.1-2.5 2.5-2.5s2.5 1.1 2.5 2.5v5.1z" clip-rule="evenodd"/><path fill="#a493ff" d="M15.8 9.4h3.1a1.3 1.3 0 0 1 0 2.6h-3.1a1.3 1.3 0 0 1 0-2.6"/></g><g transform="translate(132 711.0) scale(1.000000)"><title aria-hidden="true">Aside Home</title><path fill="#f4f1fa" fill-rule="evenodd" d="M2.6 10.1 10.9 3c.6-.5 1.6-.5 2.2 0l8.3 7.1c.5.4.2 1.2-.5 1.2h-1.4v8c0 1.1-.9 2-2 2h-11c-1.1 0-2-.9-2-2v-8H3.1c-.7 0-1-.8-.5-1.2m6.9 11.2v-5.1c0-1.4 1.1-2.5 2.5-2.5s2.5 1.1 2.5 2.5v5.1z" clip-rule="evenodd"/><path fill="#a493ff" d="M15.8 9.4h3.1a1.3 1.3 0 0 1 0 2.6h-3.1a1.3 1.3 0 0 1 0-2.6"/></g><g transform="translate(171 699.0) scale(2.000000)"><title aria-hidden="true">Aside Home</title><path fill="#f4f1fa" fill-rule="evenodd" d="M2.6 10.1 10.9 3c.6-.5 1.6-.5 2.2 0l8.3 7.1c.5.4.2 1.2-.5 1.2h-1.4v8c0 1.1-.9 2-2 2h-11c-1.1 0-2-.9-2-2v-8H3.1c-.7 0-1-.8-.5-1.2m6.9 11.2v-5.1c0-1.4 1.1-2.5 2.5-2.5s2.5 1.1 2.5 2.5v5.1z" clip-rule="evenodd"/><path fill="#a493ff" d="M15.8 9.4h3.1a1.3 1.3 0 0 1 0 2.6h-3.1a1.3 1.3 0 0 1 0-2.6"/></g><rect x="275" y="625" width="207" height="156" rx="18" fill="#1B1823" stroke="#292532"/><text x="291" y="651" fill="#F4F1FA" font-family="-apple-system,BlinkMacSystemFont,Segoe UI,sans-serif" font-size="13" font-weight="600">Podcast</text><text x="291" y="668" fill="#F4F1FA" opacity=".5" font-family="-apple-system,BlinkMacSystemFont,Segoe UI,sans-serif" font-size="10">podcast</text><g transform="translate(291 715.0) scale(0.666667)"><title aria-hidden="true">Aside Podcast</title><rect width="8" height="12" x="8" y="2.5" fill="#f4f1fa" rx="4"/><path fill="#f4f1fa" d="M4.5 10h3c0 3.1 1.7 4.9 4.5 4.9s4.5-1.8 4.5-4.9h3c0 4.3-2.4 7.2-6 7.9V20h3v2h-9v-2h3v-2.1c-3.6-.7-6-3.6-6-7.9"/><rect width="3" height="5.6" x="10.5" y="5.2" fill="#a493ff" rx="1.5"/></g><g transform="translate(322 713.0) scale(0.833333)"><title aria-hidden="true">Aside Podcast</title><rect width="8" height="12" x="8" y="2.5" fill="#f4f1fa" rx="4"/><path fill="#f4f1fa" d="M4.5 10h3c0 3.1 1.7 4.9 4.5 4.9s4.5-1.8 4.5-4.9h3c0 4.3-2.4 7.2-6 7.9V20h3v2h-9v-2h3v-2.1c-3.6-.7-6-3.6-6-7.9"/><rect width="3" height="5.6" x="10.5" y="5.2" fill="#a493ff" rx="1.5"/></g><g transform="translate(357 711.0) scale(1.000000)"><title aria-hidden="true">Aside Podcast</title><rect width="8" height="12" x="8" y="2.5" fill="#f4f1fa" rx="4"/><path fill="#f4f1fa" d="M4.5 10h3c0 3.1 1.7 4.9 4.5 4.9s4.5-1.8 4.5-4.9h3c0 4.3-2.4 7.2-6 7.9V20h3v2h-9v-2h3v-2.1c-3.6-.7-6-3.6-6-7.9"/><rect width="3" height="5.6" x="10.5" y="5.2" fill="#a493ff" rx="1.5"/></g><g transform="translate(396 699.0) scale(2.000000)"><title aria-hidden="true">Aside Podcast</title><rect width="8" height="12" x="8" y="2.5" fill="#f4f1fa" rx="4"/><path fill="#f4f1fa" d="M4.5 10h3c0 3.1 1.7 4.9 4.5 4.9s4.5-1.8 4.5-4.9h3c0 4.3-2.4 7.2-6 7.9V20h3v2h-9v-2h3v-2.1c-3.6-.7-6-3.6-6-7.9"/><rect width="3" height="5.6" x="10.5" y="5.2" fill="#a493ff" rx="1.5"/></g><rect x="500" y="625" width="207" height="156" rx="18" fill="#1B1823" stroke="#292532"/><text x="516" y="651" fill="#F4F1FA" font-family="-apple-system,BlinkMacSystemFont,Segoe UI,sans-serif" font-size="13" font-weight="600">Library</text><text x="516" y="668" fill="#F4F1FA" opacity=".5" font-family="-apple-system,BlinkMacSystemFont,Segoe UI,sans-serif" font-size="10">library</text><g transform="translate(516 715.0) scale(0.666667)"><title aria-hidden="true">Aside Library</title><rect width="8" height="16" x="3" y="4" fill="#f4f1fa" rx="2.4"/><path fill="#a493ff" fill-rule="evenodd" d="M12 3.8c0-1 .8-1.8 1.8-1.8h5.4c1 0 1.8.8 1.8 1.8v16.4c0 1-.8 1.8-1.8 1.8h-5.4c-1 0-1.8-.8-1.8-1.8zm4.5 5.7a2.5 2.5 0 1 0 0 5 2.5 2.5 0 0 0 0-5" clip-rule="evenodd"/></g><g transform="translate(547 713.0) scale(0.833333)"><title aria-hidden="true">Aside Library</title><rect width="8" height="16" x="3" y="4" fill="#f4f1fa" rx="2.4"/><path fill="#a493ff" fill-rule="evenodd" d="M12 3.8c0-1 .8-1.8 1.8-1.8h5.4c1 0 1.8.8 1.8 1.8v16.4c0 1-.8 1.8-1.8 1.8h-5.4c-1 0-1.8-.8-1.8-1.8zm4.5 5.7a2.5 2.5 0 1 0 0 5 2.5 2.5 0 0 0 0-5" clip-rule="evenodd"/></g><g transform="translate(582 711.0) scale(1.000000)"><title aria-hidden="true">Aside Library</title><rect width="8" height="16" x="3" y="4" fill="#f4f1fa" rx="2.4"/><path fill="#a493ff" fill-rule="evenodd" d="M12 3.8c0-1 .8-1.8 1.8-1.8h5.4c1 0 1.8.8 1.8 1.8v16.4c0 1-.8 1.8-1.8 1.8h-5.4c-1 0-1.8-.8-1.8-1.8zm4.5 5.7a2.5 2.5 0 1 0 0 5 2.5 2.5 0 0 0 0-5" clip-rule="evenodd"/></g><g transform="translate(621 699.0) scale(2.000000)"><title aria-hidden="true">Aside Library</title><rect width="8" height="16" x="3" y="4" fill="#f4f1fa" rx="2.4"/><path fill="#a493ff" fill-rule="evenodd" d="M12 3.8c0-1 .8-1.8 1.8-1.8h5.4c1 0 1.8.8 1.8 1.8v16.4c0 1-.8 1.8-1.8 1.8h-5.4c-1 0-1.8-.8-1.8-1.8zm4.5 5.7a2.5 2.5 0 1 0 0 5 2.5 2.5 0 0 0 0-5" clip-rule="evenodd"/></g><rect x="725" y="625" width="207" height="156" rx="18" fill="#1B1823" stroke="#292532"/><text x="741" y="651" fill="#F4F1FA" font-family="-apple-system,BlinkMacSystemFont,Segoe UI,sans-serif" font-size="13" font-weight="600">Search</text><text x="741" y="668" fill="#F4F1FA" opacity=".5" font-family="-apple-system,BlinkMacSystemFont,Segoe UI,sans-serif" font-size="10">search</text><g transform="translate(741 715.0) scale(0.666667)"><title aria-hidden="true">Aside Search</title><path fill="#f4f1fa" fill-rule="evenodd" d="M10.2 2.5a7.7 7.7 0 1 0 0 15.4 7.7 7.7 0 0 0 0-15.4m0 3.5a4.2 4.2 0 1 0 0 8.4 4.2 4.2 0 0 0 0-8.4" clip-rule="evenodd"/><path fill="#a493ff" d="m15 14.5 6.1 5.3c.8.7.8 1.5.2 2.1s-1.5.6-2.1-.2L14 15.6z"/></g><g transform="translate(772 713.0) scale(0.833333)"><title aria-hidden="true">Aside Search</title><path fill="#f4f1fa" fill-rule="evenodd" d="M10.2 2.5a7.7 7.7 0 1 0 0 15.4 7.7 7.7 0 0 0 0-15.4m0 3.5a4.2 4.2 0 1 0 0 8.4 4.2 4.2 0 0 0 0-8.4" clip-rule="evenodd"/><path fill="#a493ff" d="m15 14.5 6.1 5.3c.8.7.8 1.5.2 2.1s-1.5.6-2.1-.2L14 15.6z"/></g><g transform="translate(807 711.0) scale(1.000000)"><title aria-hidden="true">Aside Search</title><path fill="#f4f1fa" fill-rule="evenodd" d="M10.2 2.5a7.7 7.7 0 1 0 0 15.4 7.7 7.7 0 0 0 0-15.4m0 3.5a4.2 4.2 0 1 0 0 8.4 4.2 4.2 0 0 0 0-8.4" clip-rule="evenodd"/><path fill="#a493ff" d="m15 14.5 6.1 5.3c.8.7.8 1.5.2 2.1s-1.5.6-2.1-.2L14 15.6z"/></g><g transform="translate(846 699.0) scale(2.000000)"><title aria-hidden="true">Aside Search</title><path fill="#f4f1fa" fill-rule="evenodd" d="M10.2 2.5a7.7 7.7 0 1 0 0 15.4 7.7 7.7 0 0 0 0-15.4m0 3.5a4.2 4.2 0 1 0 0 8.4 4.2 4.2 0 0 0 0-8.4" clip-rule="evenodd"/><path fill="#a493ff" d="m15 14.5 6.1 5.3c.8.7.8 1.5.2 2.1s-1.5.6-2.1-.2L14 15.6z"/></g><rect x="950" y="625" width="207" height="156" rx="18" fill="#1B1823" stroke="#292532"/><text x="966" y="651" fill="#F4F1FA" font-family="-apple-system,BlinkMacSystemFont,Segoe UI,sans-serif" font-size="13" font-weight="600">Profile</text><text x="966" y="668" fill="#F4F1FA" opacity=".5" font-family="-apple-system,BlinkMacSystemFont,Segoe UI,sans-serif" font-size="10">profile</text><g transform="translate(966 715.0) scale(0.666667)"><title aria-hidden="true">Aside Profile</title><circle cx="12" cy="7.1" r="4.6" fill="#a493ff"/><path fill="#f4f1fa" d="M3.2 20.2c.6-4.7 3.8-7.3 8.8-7.3s8.2 2.6 8.8 7.3c.1 1-.7 1.8-1.6 1.8H4.8c-.9 0-1.7-.8-1.6-1.8"/></g><g transform="translate(997 713.0) scale(0.833333)"><title aria-hidden="true">Aside Profile</title><circle cx="12" cy="7.1" r="4.6" fill="#a493ff"/><path fill="#f4f1fa" d="M3.2 20.2c.6-4.7 3.8-7.3 8.8-7.3s8.2 2.6 8.8 7.3c.1 1-.7 1.8-1.6 1.8H4.8c-.9 0-1.7-.8-1.6-1.8"/></g><g transform="translate(1032 711.0) scale(1.000000)"><title aria-hidden="true">Aside Profile</title><circle cx="12" cy="7.1" r="4.6" fill="#a493ff"/><path fill="#f4f1fa" d="M3.2 20.2c.6-4.7 3.8-7.3 8.8-7.3s8.2 2.6 8.8 7.3c.1 1-.7 1.8-1.6 1.8H4.8c-.9 0-1.7-.8-1.6-1.8"/></g><g transform="translate(1071 699.0) scale(2.000000)"><title aria-hidden="true">Aside Profile</title><circle cx="12" cy="7.1" r="4.6" fill="#a493ff"/><path fill="#f4f1fa" d="M3.2 20.2c.6-4.7 3.8-7.3 8.8-7.3s8.2 2.6 8.8 7.3c.1 1-.7 1.8-1.6 1.8H4.8c-.9 0-1.7-.8-1.6-1.8"/></g><rect x="1175" y="625" width="207" height="156" rx="18" fill="#1B1823" stroke="#292532"/><text x="1191" y="651" fill="#F4F1FA" font-family="-apple-system,BlinkMacSystemFont,Segoe UI,sans-serif" font-size="13" font-weight="600">Play</text><text x="1191" y="668" fill="#F4F1FA" opacity=".5" font-family="-apple-system,BlinkMacSystemFont,Segoe UI,sans-serif" font-size="10">play</text><g transform="translate(1191 715.0) scale(0.666667)"><title aria-hidden="true">Aside Play</title><rect width="4" height="12" x="3" y="6" fill="#a493ff" rx="2"/><path fill="#f4f1fa" d="M8.6 4.7c0-1.5 1.6-2.4 2.9-1.6l9.2 7.1c1.1.9 1.1 2.6 0 3.5l-9.2 7.1c-1.2.9-2.9 0-2.9-1.5z"/></g><g transform="translate(1222 713.0) scale(0.833333)"><title aria-hidden="true">Aside Play</title><rect width="4" height="12" x="3" y="6" fill="#a493ff" rx="2"/><path fill="#f4f1fa" d="M8.6 4.7c0-1.5 1.6-2.4 2.9-1.6l9.2 7.1c1.1.9 1.1 2.6 0 3.5l-9.2 7.1c-1.2.9-2.9 0-2.9-1.5z"/></g><g transform="translate(1257 711.0) scale(1.000000)"><title aria-hidden="true">Aside Play</title><rect width="4" height="12" x="3" y="6" fill="#a493ff" rx="2"/><path fill="#f4f1fa" d="M8.6 4.7c0-1.5 1.6-2.4 2.9-1.6l9.2 7.1c1.1.9 1.1 2.6 0 3.5l-9.2 7.1c-1.2.9-2.9 0-2.9-1.5z"/></g><g transform="translate(1296 699.0) scale(2.000000)"><title aria-hidden="true">Aside Play</title><rect width="4" height="12" x="3" y="6" fill="#a493ff" rx="2"/><path fill="#f4f1fa" d="M8.6 4.7c0-1.5 1.6-2.4 2.9-1.6l9.2 7.1c1.1.9 1.1 2.6 0 3.5l-9.2 7.1c-1.2.9-2.9 0-2.9-1.5z"/></g><rect x="50" y="799" width="207" height="156" rx="18" fill="#1B1823" stroke="#292532"/><text x="66" y="825" fill="#F4F1FA" font-family="-apple-system,BlinkMacSystemFont,Segoe UI,sans-serif" font-size="13" font-weight="600">Liked</text><text x="66" y="842" fill="#F4F1FA" opacity=".5" font-family="-apple-system,BlinkMacSystemFont,Segoe UI,sans-serif" font-size="10">liked</text><g transform="translate(66 889.0) scale(0.666667)"><title aria-hidden="true">Aside Liked</title><path fill="#f4f1fa" d="M12 21.5C9.2 19 2.7 14.8 2.7 8.9c0-3.7 2.4-6.2 5.7-6.2 1.7 0 2.9.7 3.6 1.8.7-1.1 1.9-1.8 3.6-1.8 3.3 0 5.7 2.5 5.7 6.2 0 5.9-6.5 10.1-9.3 12.6"/><path fill="#a493ff" d="m6.6 11.5 2.2-1.8 2.6 3.1L17 7.2l2 2-7.8 7.8z"/></g><g transform="translate(97 887.0) scale(0.833333)"><title aria-hidden="true">Aside Liked</title><path fill="#f4f1fa" d="M12 21.5C9.2 19 2.7 14.8 2.7 8.9c0-3.7 2.4-6.2 5.7-6.2 1.7 0 2.9.7 3.6 1.8.7-1.1 1.9-1.8 3.6-1.8 3.3 0 5.7 2.5 5.7 6.2 0 5.9-6.5 10.1-9.3 12.6"/><path fill="#a493ff" d="m6.6 11.5 2.2-1.8 2.6 3.1L17 7.2l2 2-7.8 7.8z"/></g><g transform="translate(132 885.0) scale(1.000000)"><title aria-hidden="true">Aside Liked</title><path fill="#f4f1fa" d="M12 21.5C9.2 19 2.7 14.8 2.7 8.9c0-3.7 2.4-6.2 5.7-6.2 1.7 0 2.9.7 3.6 1.8.7-1.1 1.9-1.8 3.6-1.8 3.3 0 5.7 2.5 5.7 6.2 0 5.9-6.5 10.1-9.3 12.6"/><path fill="#a493ff" d="m6.6 11.5 2.2-1.8 2.6 3.1L17 7.2l2 2-7.8 7.8z"/></g><g transform="translate(171 873.0) scale(2.000000)"><title aria-hidden="true">Aside Liked</title><path fill="#f4f1fa" d="M12 21.5C9.2 19 2.7 14.8 2.7 8.9c0-3.7 2.4-6.2 5.7-6.2 1.7 0 2.9.7 3.6 1.8.7-1.1 1.9-1.8 3.6-1.8 3.3 0 5.7 2.5 5.7 6.2 0 5.9-6.5 10.1-9.3 12.6"/><path fill="#a493ff" d="m6.6 11.5 2.2-1.8 2.6 3.1L17 7.2l2 2-7.8 7.8z"/></g><rect x="275" y="799" width="207" height="156" rx="18" fill="#1B1823" stroke="#292532"/><text x="291" y="825" fill="#F4F1FA" font-family="-apple-system,BlinkMacSystemFont,Segoe UI,sans-serif" font-size="13" font-weight="600">Settings</text><text x="291" y="842" fill="#F4F1FA" opacity=".5" font-family="-apple-system,BlinkMacSystemFont,Segoe UI,sans-serif" font-size="10">settings</text><g transform="translate(291 889.0) scale(0.666667)"><title aria-hidden="true">Aside Settings</title><path fill="#f4f1fa" fill-rule="evenodd" d="M12 5a7 7 0 1 1 0 14 7 7 0 0 1 0-14m0 4a3 3 0 1 0 0 6 3 3 0 0 0 0-6" clip-rule="evenodd"/><rect width="4" height="5" x="10" y="2" fill="#a493ff" rx="2"/><rect width="4" height="5" x="10" y="17" fill="#f4f1fa" rx="2"/><rect width="5" height="4" x="2" y="10" fill="#f4f1fa" rx="2"/><rect width="5" height="4" x="17" y="10" fill="#f4f1fa" rx="2"/></g><g transform="translate(322 887.0) scale(0.833333)"><title aria-hidden="true">Aside Settings</title><path fill="#f4f1fa" fill-rule="evenodd" d="M12 5a7 7 0 1 1 0 14 7 7 0 0 1 0-14m0 4a3 3 0 1 0 0 6 3 3 0 0 0 0-6" clip-rule="evenodd"/><rect width="4" height="5" x="10" y="2" fill="#a493ff" rx="2"/><rect width="4" height="5" x="10" y="17" fill="#f4f1fa" rx="2"/><rect width="5" height="4" x="2" y="10" fill="#f4f1fa" rx="2"/><rect width="5" height="4" x="17" y="10" fill="#f4f1fa" rx="2"/></g><g transform="translate(357 885.0) scale(1.000000)"><title aria-hidden="true">Aside Settings</title><path fill="#f4f1fa" fill-rule="evenodd" d="M12 5a7 7 0 1 1 0 14 7 7 0 0 1 0-14m0 4a3 3 0 1 0 0 6 3 3 0 0 0 0-6" clip-rule="evenodd"/><rect width="4" height="5" x="10" y="2" fill="#a493ff" rx="2"/><rect width="4" height="5" x="10" y="17" fill="#f4f1fa" rx="2"/><rect width="5" height="4" x="2" y="10" fill="#f4f1fa" rx="2"/><rect width="5" height="4" x="17" y="10" fill="#f4f1fa" rx="2"/></g><g transform="translate(396 873.0) scale(2.000000)"><title aria-hidden="true">Aside Settings</title><path fill="#f4f1fa" fill-rule="evenodd" d="M12 5a7 7 0 1 1 0 14 7 7 0 0 1 0-14m0 4a3 3 0 1 0 0 6 3 3 0 0 0 0-6" clip-rule="evenodd"/><rect width="4" height="5" x="10" y="2" fill="#a493ff" rx="2"/><rect width="4" height="5" x="10" y="17" fill="#f4f1fa" rx="2"/><rect width="5" height="4" x="2" y="10" fill="#f4f1fa" rx="2"/><rect width="5" height="4" x="17" y="10" fill="#f4f1fa" rx="2"/></g><rect x="500" y="799" width="207" height="156" rx="18" fill="#1B1823" stroke="#292532"/><text x="516" y="825" fill="#F4F1FA" font-family="-apple-system,BlinkMacSystemFont,Segoe UI,sans-serif" font-size="13" font-weight="600">Equalizer</text><text x="516" y="842" fill="#F4F1FA" opacity=".5" font-family="-apple-system,BlinkMacSystemFont,Segoe UI,sans-serif" font-size="10">equalizer</text><g transform="translate(516 889.0) scale(0.666667)"><title aria-hidden="true">Aside Equalizer</title><rect width="3.5" height="18" x="3" y="3" fill="#f4f1fa" rx="1.75"/><rect width="3.5" height="18" x="10.25" y="3" fill="#f4f1fa" rx="1.75"/><rect width="3.5" height="18" x="17.5" y="3" fill="#f4f1fa" rx="1.75"/><rect width="5.5" height="4.5" x="2" y="6" fill="#a493ff" rx="2.25"/><rect width="5.5" height="4.5" x="9.25" y="13.5" fill="#a493ff" rx="2.25"/><rect width="5.5" height="4.5" x="16.5" y="9" fill="#a493ff" rx="2.25"/></g><g transform="translate(547 887.0) scale(0.833333)"><title aria-hidden="true">Aside Equalizer</title><rect width="3.5" height="18" x="3" y="3" fill="#f4f1fa" rx="1.75"/><rect width="3.5" height="18" x="10.25" y="3" fill="#f4f1fa" rx="1.75"/><rect width="3.5" height="18" x="17.5" y="3" fill="#f4f1fa" rx="1.75"/><rect width="5.5" height="4.5" x="2" y="6" fill="#a493ff" rx="2.25"/><rect width="5.5" height="4.5" x="9.25" y="13.5" fill="#a493ff" rx="2.25"/><rect width="5.5" height="4.5" x="16.5" y="9" fill="#a493ff" rx="2.25"/></g><g transform="translate(582 885.0) scale(1.000000)"><title aria-hidden="true">Aside Equalizer</title><rect width="3.5" height="18" x="3" y="3" fill="#f4f1fa" rx="1.75"/><rect width="3.5" height="18" x="10.25" y="3" fill="#f4f1fa" rx="1.75"/><rect width="3.5" height="18" x="17.5" y="3" fill="#f4f1fa" rx="1.75"/><rect width="5.5" height="4.5" x="2" y="6" fill="#a493ff" rx="2.25"/><rect width="5.5" height="4.5" x="9.25" y="13.5" fill="#a493ff" rx="2.25"/><rect width="5.5" height="4.5" x="16.5" y="9" fill="#a493ff" rx="2.25"/></g><g transform="translate(621 873.0) scale(2.000000)"><title aria-hidden="true">Aside Equalizer</title><rect width="3.5" height="18" x="3" y="3" fill="#f4f1fa" rx="1.75"/><rect width="3.5" height="18" x="10.25" y="3" fill="#f4f1fa" rx="1.75"/><rect width="3.5" height="18" x="17.5" y="3" fill="#f4f1fa" rx="1.75"/><rect width="5.5" height="4.5" x="2" y="6" fill="#a493ff" rx="2.25"/><rect width="5.5" height="4.5" x="9.25" y="13.5" fill="#a493ff" rx="2.25"/><rect width="5.5" height="4.5" x="16.5" y="9" fill="#a493ff" rx="2.25"/></g><rect x="725" y="799" width="207" height="156" rx="18" fill="#1B1823" stroke="#292532"/><text x="741" y="825" fill="#F4F1FA" font-family="-apple-system,BlinkMacSystemFont,Segoe UI,sans-serif" font-size="13" font-weight="600">Download</text><text x="741" y="842" fill="#F4F1FA" opacity=".5" font-family="-apple-system,BlinkMacSystemFont,Segoe UI,sans-serif" font-size="10">download</text><g transform="translate(741 889.0) scale(0.666667)"><title aria-hidden="true">Aside Download</title><path fill="#f4f1fa" d="M9.5 3.7c0-.9.7-1.7 1.7-1.7h1.6c.9 0 1.7.7 1.7 1.7v8.2h3.2c1.3 0 2 1.6 1.1 2.5l-5.6 5.5c-.6.6-1.6.6-2.2 0l-5.7-5.5c-.9-.9-.3-2.5 1.1-2.5h3.2V3.7Z"/><rect width="16" height="2" x="4" y="20" fill="#a493ff" rx="1"/></g><g transform="translate(772 887.0) scale(0.833333)"><title aria-hidden="true">Aside Download</title><path fill="#f4f1fa" d="M9.5 3.7c0-.9.7-1.7 1.7-1.7h1.6c.9 0 1.7.7 1.7 1.7v8.2h3.2c1.3 0 2 1.6 1.1 2.5l-5.6 5.5c-.6.6-1.6.6-2.2 0l-5.7-5.5c-.9-.9-.3-2.5 1.1-2.5h3.2V3.7Z"/><rect width="16" height="2" x="4" y="20" fill="#a493ff" rx="1"/></g><g transform="translate(807 885.0) scale(1.000000)"><title aria-hidden="true">Aside Download</title><path fill="#f4f1fa" d="M9.5 3.7c0-.9.7-1.7 1.7-1.7h1.6c.9 0 1.7.7 1.7 1.7v8.2h3.2c1.3 0 2 1.6 1.1 2.5l-5.6 5.5c-.6.6-1.6.6-2.2 0l-5.7-5.5c-.9-.9-.3-2.5 1.1-2.5h3.2V3.7Z"/><rect width="16" height="2" x="4" y="20" fill="#a493ff" rx="1"/></g><g transform="translate(846 873.0) scale(2.000000)"><title aria-hidden="true">Aside Download</title><path fill="#f4f1fa" d="M9.5 3.7c0-.9.7-1.7 1.7-1.7h1.6c.9 0 1.7.7 1.7 1.7v8.2h3.2c1.3 0 2 1.6 1.1 2.5l-5.6 5.5c-.6.6-1.6.6-2.2 0l-5.7-5.5c-.9-.9-.3-2.5 1.1-2.5h3.2V3.7Z"/><rect width="16" height="2" x="4" y="20" fill="#a493ff" rx="1"/></g><rect x="950" y="799" width="207" height="156" rx="18" fill="#1B1823" stroke="#292532"/><text x="966" y="825" fill="#F4F1FA" font-family="-apple-system,BlinkMacSystemFont,Segoe UI,sans-serif" font-size="13" font-weight="600">Waveform</text><text x="966" y="842" fill="#F4F1FA" opacity=".5" font-family="-apple-system,BlinkMacSystemFont,Segoe UI,sans-serif" font-size="10">waveform</text><g transform="translate(966 889.0) scale(0.666667)"><title aria-hidden="true">Aside Waveform</title><rect width="3" height="6" x="2" y="9" fill="#f4f1fa" rx="1.5"/><rect width="3" height="12" x="6.25" y="6" fill="#f4f1fa" rx="1.5"/><rect width="3" height="18" x="10.5" y="3" fill="#a493ff" rx="1.5"/><rect width="3" height="12" x="14.75" y="6" fill="#f4f1fa" rx="1.5"/><rect width="3" height="6" x="19" y="9" fill="#f4f1fa" rx="1.5"/></g><g transform="translate(997 887.0) scale(0.833333)"><title aria-hidden="true">Aside Waveform</title><rect width="3" height="6" x="2" y="9" fill="#f4f1fa" rx="1.5"/><rect width="3" height="12" x="6.25" y="6" fill="#f4f1fa" rx="1.5"/><rect width="3" height="18" x="10.5" y="3" fill="#a493ff" rx="1.5"/><rect width="3" height="12" x="14.75" y="6" fill="#f4f1fa" rx="1.5"/><rect width="3" height="6" x="19" y="9" fill="#f4f1fa" rx="1.5"/></g><g transform="translate(1032 885.0) scale(1.000000)"><title aria-hidden="true">Aside Waveform</title><rect width="3" height="6" x="2" y="9" fill="#f4f1fa" rx="1.5"/><rect width="3" height="12" x="6.25" y="6" fill="#f4f1fa" rx="1.5"/><rect width="3" height="18" x="10.5" y="3" fill="#a493ff" rx="1.5"/><rect width="3" height="12" x="14.75" y="6" fill="#f4f1fa" rx="1.5"/><rect width="3" height="6" x="19" y="9" fill="#f4f1fa" rx="1.5"/></g><g transform="translate(1071 873.0) scale(2.000000)"><title aria-hidden="true">Aside Waveform</title><rect width="3" height="6" x="2" y="9" fill="#f4f1fa" rx="1.5"/><rect width="3" height="12" x="6.25" y="6" fill="#f4f1fa" rx="1.5"/><rect width="3" height="18" x="10.5" y="3" fill="#a493ff" rx="1.5"/><rect width="3" height="12" x="14.75" y="6" fill="#f4f1fa" rx="1.5"/><rect width="3" height="6" x="19" y="9" fill="#f4f1fa" rx="1.5"/></g><rect x="1175" y="799" width="207" height="156" rx="18" fill="#1B1823" stroke="#292532"/><text x="1191" y="825" fill="#F4F1FA" font-family="-apple-system,BlinkMacSystemFont,Segoe UI,sans-serif" font-size="13" font-weight="600">Music Category</text><text x="1191" y="842" fill="#F4F1FA" opacity=".5" font-family="-apple-system,BlinkMacSystemFont,Segoe UI,sans-serif" font-size="10">catMusic</text><g transform="translate(1191 889.0) scale(0.666667)"><title aria-hidden="true">Aside Music Category</title><path fill="#f4f1fa" d="m4 8.2 1.2-4.7 4.2 2a10 10 0 0 1 2.6-.3c.9 0 1.8.1 2.6.3l4.2-2L20 8.2v7.1c0 3.7-3.2 6.2-8 6.2S4 19 4 15.3z"/><path fill="#a493ff" d="M15.1 7.3v7.1a2.8 2.8 0 1 1-1.8-2.6V8.7l5-1.4v4.9a2.8 2.8 0 1 1-1.8-2.6V6.9z"/></g><g transform="translate(1222 887.0) scale(0.833333)"><title aria-hidden="true">Aside Music Category</title><path fill="#f4f1fa" d="m4 8.2 1.2-4.7 4.2 2a10 10 0 0 1 2.6-.3c.9 0 1.8.1 2.6.3l4.2-2L20 8.2v7.1c0 3.7-3.2 6.2-8 6.2S4 19 4 15.3z"/><path fill="#a493ff" d="M15.1 7.3v7.1a2.8 2.8 0 1 1-1.8-2.6V8.7l5-1.4v4.9a2.8 2.8 0 1 1-1.8-2.6V6.9z"/></g><g transform="translate(1257 885.0) scale(1.000000)"><title aria-hidden="true">Aside Music Category</title><path fill="#f4f1fa" d="m4 8.2 1.2-4.7 4.2 2a10 10 0 0 1 2.6-.3c.9 0 1.8.1 2.6.3l4.2-2L20 8.2v7.1c0 3.7-3.2 6.2-8 6.2S4 19 4 15.3z"/><path fill="#a493ff" d="M15.1 7.3v7.1a2.8 2.8 0 1 1-1.8-2.6V8.7l5-1.4v4.9a2.8 2.8 0 1 1-1.8-2.6V6.9z"/></g><g transform="translate(1296 873.0) scale(2.000000)"><title aria-hidden="true">Aside Music Category</title><path fill="#f4f1fa" d="m4 8.2 1.2-4.7 4.2 2a10 10 0 0 1 2.6-.3c.9 0 1.8.1 2.6.3l4.2-2L20 8.2v7.1c0 3.7-3.2 6.2-8 6.2S4 19 4 15.3z"/><path fill="#a493ff" d="M15.1 7.3v7.1a2.8 2.8 0 1 1-1.8-2.6V8.7l5-1.4v4.9a2.8 2.8 0 1 1-1.8-2.6V6.9z"/></g></svg>
